<?xml version="1.0" encoding="utf-8"?>
<!-- Generator: Adobe Illustrator 16.0.0, SVG Export Plug-In . SVG Version: 6.00 Build 0)  -->
<!DOCTYPE svg PUBLIC "-//W3C//DTD SVG 1.1//EN" "http://www.w3.org/Graphics/SVG/1.1/DTD/svg11.dtd">
<svg version="1.1" id="Layer_1" xmlns="http://www.w3.org/2000/svg" xmlns:xlink="http://www.w3.org/1999/xlink" x="0px" y="0px"
	 width="1212.083px" height="231.85px" viewBox="0 0 1212.083 231.85" enable-background="new 0 0 1212.083 231.85"
	 xml:space="preserve">
<g>
	<g>
		<path fill="#EFC88B" stroke="#EFC88B" stroke-miterlimit="10" d="M139.848,51.133v127.831h-33.492v-64.08
			c0-4.952-0.938-9.567-2.812-13.841c-1.878-4.271-4.475-8.029-7.798-11.277c-3.324-3.248-7.159-5.769-11.506-7.562
			c-4.346-1.793-8.907-2.693-13.677-2.693c-4.945,0-9.548,0.943-13.807,2.825c-4.262,1.882-8.053,4.406-11.377,7.57
			c-3.324,3.163-5.924,6.926-7.797,11.289c-1.878,4.362-2.813,9.021-2.813,13.981c0,4.795,0.936,9.328,2.813,13.603
			c1.873,4.275,4.473,8.038,7.797,11.289c3.324,3.252,7.115,5.816,11.377,7.698c4.259,1.881,8.861,2.82,13.807,2.82
			c5.28,0,9.799-0.936,13.55-2.812h0.256v0.51l12.782,22.755l-0.255,0.255c-8.354,6.479-18.664,9.716-30.936,9.716
			c-9.036,0-17.557-1.706-25.566-5.113c-8.013-3.407-15-8.094-20.964-14.061c-5.968-5.965-10.698-12.951-14.19-20.965
			C1.745,132.86,0,124.34,0,115.304c0-9.203,1.745-17.809,5.24-25.822c3.492-8.009,8.223-14.997,14.19-20.965
			c5.964-5.963,12.951-10.694,20.964-14.189c8.01-3.491,16.53-5.241,25.566-5.241c8.86,0,16.618,1.65,23.265,4.945
			c6.647,3.296,12.355,8.069,17.13,14.321V51.133H139.848z"/>
		<path fill="#EFC88B" stroke="#EFC88B" stroke-miterlimit="10" d="M157.742,51.133h34.77v127.831h-34.77V51.133z M275.858,65.961
			c4.258,5.286,7.326,11.933,9.204,19.942c1.874,8.013,2.812,17.897,2.812,29.658v63.403h-34.771v-63.567
			c0-4.786-0.128-9.356-0.383-13.715c-0.256-4.354-1.15-8.201-2.686-11.532c-1.533-3.332-4.006-5.936-7.414-7.818
			c-3.411-1.877-8.27-2.821-14.572-2.821c-5.969,0-11.505,1.279-16.619,3.835v0.255l-0.255-0.255l-12.527-22.091l0.256-0.252
			c8.86-7.941,19.941-11.916,33.235-11.916C252.594,49.087,267.166,54.712,275.858,65.961z"/>
		<path fill="#EFC88B" stroke="#EFC88B" stroke-miterlimit="10" d="M440.505,51.133v113.259c-0.512,9.547-2.645,18.448-6.392,26.717
			c-3.752,8.265-8.736,15.425-14.957,21.475c-6.224,6.05-13.51,10.822-21.859,14.318c-8.353,3.49-17.217,5.241-26.588,5.241
			c-12.616,0-24.332-3.112-35.154-9.332c-10.825-6.223-19.391-14.7-25.693-25.439l-0.257-0.511l0.257-0.255l28.122-12.272
			c1.702,3.067,3.875,5.753,6.52,8.054c2.64,2.301,5.453,4.175,8.438,5.624c2.979,1.446,6.048,2.557,9.203,3.324
			c3.152,0.768,6.176,1.15,9.076,1.15c4.431,0,8.776-0.941,13.038-2.816c4.259-1.881,8.054-4.614,11.378-8.201
			c3.324-3.586,5.964-7.857,7.925-12.807c1.958-4.953,2.94-10.503,2.94-16.654v-46.882c0-4.954-0.982-9.607-2.94-13.962
			c-1.961-4.354-4.601-8.113-7.925-11.273c-3.324-3.16-7.158-5.681-11.505-7.558c-4.346-1.877-8.993-2.821-13.934-2.821
			c-4.945,0-9.588,0.947-13.934,2.833c-4.347,1.89-8.142,4.422-11.377,7.598c-3.24,3.176-5.797,6.951-7.67,11.33
			c-1.878,4.378-2.812,9.055-2.812,14.033s0.935,9.615,2.812,13.905c1.873,4.292,4.43,8.07,7.67,11.331
			c3.235,3.262,7.03,5.839,11.377,7.726c4.346,1.89,8.988,2.831,13.934,2.831c5.28,0,9.883-0.935,13.806-2.812h0.255l0.256,0.256
			l12.783,22.588l-0.255,0.251c-8.354,6.762-18.664,10.143-30.936,10.143c-9.204,0-17.896-1.751-26.077-5.241
			c-8.182-3.491-15.256-8.222-21.22-14.189c-5.969-5.964-10.699-12.995-14.19-21.093c-3.495-8.093-5.241-16.658-5.241-25.694
			c0-9.203,1.746-17.809,5.241-25.822c3.491-8.009,8.222-14.997,14.19-20.965c5.964-5.963,13.038-10.694,21.22-14.189
			c8.181-3.491,16.873-5.241,26.077-5.241c17.385,0,30.848,6.507,40.395,19.522V51.133H440.505z"/>
		<path fill="#EFC88B" stroke="#EFC88B" stroke-miterlimit="10" d="M517.713,49.087c9.032,0,17.553,1.75,25.566,5.241
			c8.01,3.495,14.996,8.226,20.965,14.189c5.964,5.968,10.693,12.956,14.188,20.965c3.492,8.013,5.241,16.619,5.241,25.822
			c0,4.945-0.511,9.715-1.533,14.318l-0.256,0.511h-64.938l-16.362-26.077h48.575c-2.389-7.159-6.351-13.04-11.888-17.642
			c-5.541-4.602-12.06-6.903-19.559-6.903c-4.602,0-8.947,0.935-13.038,2.804s-7.631,4.375-10.61,7.515
			c-2.983,3.14-5.329,6.879-7.031,11.209c-1.705,4.331-2.557,9.045-2.557,14.137c0,3.908,0.768,7.942,2.302,12.101
			c1.533,4.163,3.746,7.941,6.646,11.337c2.896,3.395,6.392,6.24,10.482,8.534c4.091,2.292,8.692,3.438,13.806,3.438
			c4.602,0,8.821-0.639,12.655-1.917c3.835-1.279,7.455-4.131,10.866-8.565l0.256-0.256l0.511,0.256l29.657,13.059l-0.512,0.52
			c-6.136,8.597-13.934,15.3-23.393,20.109c-9.46,4.814-19.475,7.219-30.041,7.219c-9.204,0-17.855-1.706-25.949-5.113
			c-8.098-3.407-15.129-8.094-21.092-14.061c-5.969-5.965-10.698-12.951-14.19-20.965c-3.495-8.011-5.241-16.531-5.241-25.567
			c0-9.203,1.746-17.809,5.241-25.822c3.492-8.009,8.222-14.997,14.19-20.965c5.963-5.963,12.994-10.694,21.092-14.189
			C499.857,50.837,508.509,49.087,517.713,49.087z"/>
		<path fill="#EFC88B" stroke="#EFC88B" stroke-miterlimit="10" d="M630.461,0v178.964h-34.004L596.713,0H630.461z"/>
		<path fill="#EFC88B" stroke="#EFC88B" stroke-miterlimit="10" d="M739.115,130.133l27.611,18.151l-0.254,0.256
			c-5.968,10.227-14.023,18.241-24.162,24.033c-10.141,5.796-21.092,8.691-32.853,8.691c-9.203,0-17.812-1.749-25.82-5.24
			c-8.015-3.491-15.001-8.222-20.965-14.188c-5.969-5.965-10.698-12.951-14.19-20.965c-3.495-8.011-5.241-16.531-5.241-25.567
			c0-9.032,1.746-17.552,5.241-25.565c3.492-8.01,8.222-14.996,14.19-20.965c5.964-5.964,12.95-10.694,20.965-14.189
			c8.009-3.491,16.617-5.242,25.82-5.242c11.761,0,22.712,2.9,32.853,8.693c10.139,5.797,18.194,13.807,24.162,24.033l0.254,0.256
			l-27.867,18.151l-0.255-0.255c-2.729-6.304-6.691-11.417-11.889-15.34C721.515,80.96,715.762,79,709.458,79
			c-4.602,0-8.906,0.982-12.91,2.94c-4.007,1.961-7.458,4.602-10.355,7.925c-2.9,3.324-5.199,7.159-6.902,11.504
			c-1.706,4.348-2.556,8.994-2.556,13.934c0,4.945,0.85,9.548,2.556,13.806c1.703,4.264,4.002,7.971,6.902,11.123
			c2.897,3.155,6.349,5.624,10.355,7.414c4.004,1.788,8.309,2.684,12.91,2.684c6.304,0,12.057-1.745,17.258-5.241
			c5.197-3.491,9.159-8.393,11.889-14.7l0.255-0.511L739.115,130.133z"/>
		<path fill="#EFC88B" stroke="#EFC88B" stroke-miterlimit="10" d="M840.609,49.087c9.203,0,17.808,1.75,25.822,5.241
			c8.009,3.495,14.996,8.226,20.964,14.189c5.964,5.968,10.693,12.956,14.188,20.965c3.491,8.013,5.242,16.535,5.242,25.566
			c0,9.036-1.751,17.557-5.242,25.567c-3.495,8.014-8.225,15-14.188,20.965c-5.968,5.967-12.955,10.696-20.964,14.189
			c-8.015,3.49-16.619,5.24-25.822,5.24c-9.204,0-17.812-1.75-25.822-5.24c-8.014-3.493-15-8.223-20.966-14.189
			c-5.966-5.965-10.697-12.951-14.188-20.965c-3.495-8.011-5.241-16.531-5.241-25.567c0-9.031,1.746-17.553,5.241-25.566
			c3.49-8.009,8.222-14.997,14.188-20.965c5.966-5.963,12.952-10.694,20.966-14.189C822.797,50.837,831.405,49.087,840.609,49.087z
			 M840.609,150.586c4.258,0,8.22-0.936,11.889-2.812c3.662-1.875,6.901-4.476,9.715-7.798c2.812-3.325,5.025-7.159,6.647-11.506
			c1.616-4.346,2.428-9.076,2.428-14.188c0-4.771-0.812-9.332-2.428-13.679c-1.622-4.347-3.835-8.094-6.647-11.25
			c-2.813-3.151-6.053-5.664-9.715-7.542C848.829,79.938,844.867,79,840.609,79c-4.263,0-8.27,0.938-12.017,2.812
			c-3.751,1.877-7.031,4.39-9.842,7.542c-2.813,3.155-5.03,6.903-6.649,11.25c-1.621,4.347-2.428,8.908-2.428,13.679
			c0,5.112,0.807,9.843,2.428,14.188c1.619,4.347,3.836,8.181,6.649,11.506c2.811,3.322,6.091,5.923,9.842,7.798
			C832.34,149.65,836.347,150.586,840.609,150.586z"/>
		<path fill="#EFC88B" stroke="#EFC88B" stroke-miterlimit="10" d="M919.61,0h34.003v29.913H919.61V0z M919.61,178.964V51.133
			h34.003v127.831H919.61z"/>
		<path fill="#EFC88B" stroke="#EFC88B" stroke-miterlimit="10" d="M968.95,51.133h34.771v127.831H968.95V51.133z M1087.066,65.961
			c4.258,5.286,7.326,11.933,9.204,19.942c1.873,8.013,2.812,17.897,2.812,29.658v63.403h-34.771v-63.567
			c0-4.786-0.127-9.356-0.384-13.715c-0.256-4.354-1.15-8.201-2.685-11.532c-1.534-3.332-4.006-5.936-7.414-7.818
			c-3.411-1.877-8.269-2.821-14.572-2.821c-5.968,0-11.506,1.279-16.618,3.835v0.255l-0.255-0.255l-12.528-22.091l0.254-0.252
			c8.862-7.941,19.942-11.916,33.237-11.916C1063.801,49.087,1078.375,54.712,1087.066,65.961z"/>
		<path fill="#EFC88B" stroke="#EFC88B" stroke-miterlimit="10" d="M1176.035,103.032c5.625,1.878,10.778,3.796,15.469,5.752
			c4.685,1.962,8.774,4.308,12.271,7.032c3.49,2.728,6.22,6.008,8.181,9.844c1.958,3.832,2.94,8.396,2.94,13.676v0.258
			c0,12.953-4.307,23.098-12.912,30.423c-8.607,7.331-20.668,10.993-36.176,10.993c-9.715,0-19.263-1.679-28.635-5.026
			c-9.375-3.352-18.151-8.121-26.332-14.312l-0.256-0.256l0.256-0.26l17.385-27.444l0.257,0.256
			c5.111,5.456,10.903,9.588,17.383,12.4c6.476,2.811,13.38,4.218,20.71,4.218c10.054,0,15.084-3.229,15.084-9.691
			c0-3.06-1.621-5.353-4.857-6.882c-3.24-1.531-7.075-2.978-11.504-4.34c-0.855-0.335-1.664-0.548-2.43-0.634
			c-0.768-0.084-1.578-0.297-2.428-0.641c-5.114-1.357-10.229-2.848-15.341-4.462c-5.114-1.613-9.716-3.826-13.807-6.631
			c-4.09-2.805-7.458-6.371-10.099-10.71c-2.645-4.334-3.962-9.903-3.962-16.706v-0.507c0-5.952,1.106-11.394,3.323-16.323
			c2.213-4.928,5.369-9.18,9.459-12.75c4.091-3.572,9.033-6.333,14.829-8.29c5.792-1.954,12.183-2.932,19.174-2.932
			c8.182,0,16.446,1.238,24.8,3.707c8.35,2.473,16.107,6.096,23.265,10.866v0.511l-15.594,28.379l-0.257-0.256
			c-3.922-3.918-8.779-7.03-14.572-9.331c-5.797-2.301-11.933-3.452-18.408-3.452c-1.194,0-2.557,0.089-4.09,0.256
			c-1.534,0.171-2.941,0.599-4.219,1.278c-1.278,0.683-2.346,1.578-3.197,2.684c-0.854,1.111-1.275,2.685-1.275,4.73
			c0,1.534,0.677,2.94,2.045,4.219c1.361,1.278,3.107,2.473,5.239,3.579c2.13,1.11,4.515,2.173,7.159,3.196
			c2.641,1.022,5.24,1.961,7.798,2.812c0.511,0,1.062,0.088,1.661,0.257C1174.969,102.692,1175.523,102.865,1176.035,103.032z"/>
	</g>
</g>
</svg>
